<?xml version="1.0" encoding="utf-8"?>
<!-- Generator: Adobe Illustrator 19.1.0, SVG Export Plug-In . SVG Version: 6.00 Build 0)  -->
<svg version="1.1" id="Layer_1" xmlns="http://www.w3.org/2000/svg" xmlns:xlink="http://www.w3.org/1999/xlink" x="0px" y="0px"
	 viewBox="-1153 385 64 64" style="enable-background:new -1153 385 64 64;" xml:space="preserve">
<style type="text/css">
	.st0{display:none;}
	.st1{display:inline;fill:none;stroke:#FF9D6B;stroke-width:2;stroke-miterlimit:10;}
	.st2{display:inline;fill:#FF9D6B;stroke:#FF9D6B;stroke-width:2;stroke-miterlimit:10;}
	.st3{fill:none;stroke:#FF9D6B;stroke-width:2;stroke-miterlimit:10;}
</style>
<g id="image" class="st0">
	
		<image style="display:inline;overflow:visible;enable-background:new    ;" width="310" height="217" xlink:href="8778D287E8E3AA1C.png"  transform="matrix(0.3214 0 0 0.3224 -1157.6331 383)">
	</image>
</g>
<g id="start-to-finish-automation_copy" class="st0">
	<circle class="st1" cx="-1122.2" cy="416.9" r="25.2"/>
	<line class="st1" x1="-1098.2" y1="409.1" x2="-1108.3" y2="405.3"/>
	<line class="st1" x1="-1098.2" y1="409.1" x2="-1096.3" y2="399.6"/>
	<path class="st1" d="M-1097.3,412.7L-1097.3,412.7c-0.6,0-1.1-0.5-1.1-1.1l0,0c0-0.6,0.5-1.1,1.1-1.1l0,0c0.6,0,1.1,0.5,1.1,1.1
		l0,0C-1096.2,412.2-1096.7,412.7-1097.3,412.7z"/>
	<path class="st1" d="M-1122.2,423.2L-1122.2,423.2c-3.2,0-5.8-2.6-5.8-5.8l0,0c0-3.2,2.6-5.8,5.8-5.8l0,0c3.2,0,5.8,2.6,5.8,5.8
		l0,0C-1116.5,420.6-1119.1,423.2-1122.2,423.2z"/>
	<line class="st1" x1="-1131.7" y1="411.8" x2="-1135.7" y2="408.5"/>
	<line class="st1" x1="-1133.2" y1="404.9" x2="-1129.3" y2="408.5"/>
	<line class="st1" x1="-1136.2" y1="409.3" x2="-1132.1" y2="404.5"/>
	<path class="st1" d="M-1133.7,414.3c0.1-1.6,0.7-2.8,1.3-2.8"/>
	<line class="st1" x1="-1132.4" y1="418.6" x2="-1137.6" y2="418.6"/>
	<line class="st1" x1="-1138.1" y1="414.3" x2="-1132.7" y2="414.5"/>
	<line class="st1" x1="-1137.5" y1="419.6" x2="-1137.5" y2="413.3"/>
	<line class="st1" x1="-1126.6" y1="406.9" x2="-1127.4" y2="401.8"/>
	<line class="st1" x1="-1123.2" y1="400.7" x2="-1122.6" y2="406.7"/>
	<line class="st1" x1="-1128.4" y1="402.1" x2="-1122.1" y2="401.1"/>
	<path class="st1" d="M-1129.7,407.5c1.1-1.1,2.3-1.7,2.8-1.3"/>
	<line class="st1" x1="-1118.9" y1="407.3" x2="-1116.2" y2="402.9"/>
	<line class="st1" x1="-1112.3" y1="404.7" x2="-1115.2" y2="409.2"/>
	<line class="st1" x1="-1117.1" y1="402.4" x2="-1111.7" y2="405.7"/>
	<path class="st1" d="M-1122.2,405.7c1.8-0.2,3.4,0.2,3.4,0.8"/>
	<line class="st1" x1="-1113.3" y1="411.6" x2="-1108.4" y2="410"/>
	<line class="st1" x1="-1106.6" y1="414" x2="-1111.7" y2="415.4"/>
	<line class="st1" x1="-1108.8" y1="409.1" x2="-1106.8" y2="415.1"/>
	<path class="st1" d="M-1114.3,408.6c1.3,0.9,2,2,1.7,2.5"/>
	<line class="st1" x1="-1111.8" y1="419.4" x2="-1107" y2="421.4"/>
	<line class="st1" x1="-1108.3" y1="425.6" x2="-1113.1" y2="423.3"/>
	<line class="st1" x1="-1106.7" y1="420.4" x2="-1109.2" y2="426.3"/>
	<path class="st1" d="M-1110.5,416c0.3,1.8,0,3.3-0.5,3.4"/>
	<line class="st1" x1="-1115.2" y1="425.6" x2="-1112.9" y2="430.2"/>
	<line class="st1" x1="-1116.6" y1="432.6" x2="-1119" y2="427"/>
	<line class="st1" x1="-1112.1" y1="429.7" x2="-1117.8" y2="432.5"/>
	<path class="st1" d="M-1112.4,424.1c-0.7,1.4-1.7,2.3-2.3,2"/>
	<line class="st1" x1="-1122.7" y1="427.5" x2="-1123.9" y2="432.5"/>
	<line class="st1" x1="-1128.3" y1="431.9" x2="-1126.7" y2="426.8"/>
	<line class="st1" x1="-1122.9" y1="432.7" x2="-1129.1" y2="431.1"/>
	<path class="st1" d="M-1119.1,428.1c-1.7,0.7-3.3,0.8-3.5,0.3"/>
	<line class="st1" x1="-1129.3" y1="425.1" x2="-1133.6" y2="428"/>
	<line class="st1" x1="-1136.4" y1="424.8" x2="-1131.9" y2="421.9"/>
	<line class="st1" x1="-1132.9" y1="428.8" x2="-1136.5" y2="423.6"/>
	<path class="st1" d="M-1127.4,427.7c-1.5-0.5-2.5-1.3-2.3-1.9"/>
	<path class="st1" d="M-1133,422.2c-0.2-1.7-0.4-3.1-0.4-3.1"/>
</g>
<g id="image_1_" class="st0">
	
		<image style="display:inline;overflow:visible;enable-background:new    ;" width="264" height="308" xlink:href="8778D287E8E3AA1E.png"  transform="matrix(0.3874 0 0 0.3896 -1171.1556 342)">
	</image>
</g>
<g id="efficient-workflow" class="st0">
	<line class="st1" x1="-1103.6" y1="410.9" x2="-1115.1" y2="391.4"/>
	<line class="st1" x1="-1131.4" y1="401.2" x2="-1125.9" y2="392.2"/>
	<path class="st1" d="M-1103.6,410.5l-16.4-10.9c0,0,0-0.1,0-0.1l0,0c0,0,0.1,0,0.1,0l16.4,10.9
		C-1103.5,410.4-1103.5,410.4-1103.6,410.5L-1103.6,410.5C-1103.5,410.5-1103.6,410.5-1103.6,410.5z"/>
	<path class="st1" d="M-1103.8,410.4l-0.3-19.7c0,0,0-0.1,0.1-0.1l0,0c0,0,0.1,0,0.1,0.1l0.3,19.7
		C-1103.7,410.5-1103.7,410.5-1103.8,410.4L-1103.8,410.4C-1103.8,410.5-1103.8,410.5-1103.8,410.4z"/>
	<path class="st1" d="M-1114.8,392c-2.1-2.8-6.8-5.5-11.3,0.6"/>
	<line class="st1" x1="-1122.5" y1="436.1" x2="-1099.9" y2="435.4"/>
	<line class="st1" x1="-1100.6" y1="416.4" x2="-1095.4" y2="425.4"/>
	<path class="st1" d="M-1122.1,436.3l17.4-9.2c0,0,0.1,0,0.1,0l0,0c0,0,0,0.1,0,0.1l-17.4,9.2
		C-1122.1,436.4-1122.1,436.4-1122.1,436.3L-1122.1,436.3C-1122.2,436.4-1122.1,436.3-1122.1,436.3z"/>
	<path class="st1" d="M-1122,436.1l17.4,9.1c0,0,0,0.1,0,0.1l0,0c0,0-0.1,0-0.1,0l-17.4-9.2C-1122,436.2-1122.1,436.2-1122,436.1
		L-1122,436.1C-1122,436.1-1122,436.1-1122,436.1z"/>
	<path class="st1" d="M-1100.5,435.3c3.4-0.5,8.1-3.3,4.9-10.2"/>
	<line class="st1" x1="-1134" y1="406.6" x2="-1145" y2="426.5"/>
	<line class="st1" x1="-1128.2" y1="435.5" x2="-1138.6" y2="435.4"/>
	<path class="st1" d="M-1134.4,406.9l-1,19.7c0,0,0,0.1-0.1,0.1l0,0c0,0-0.1,0-0.1-0.1l1-19.7
		C-1134.5,406.8-1134.5,406.8-1134.4,406.9L-1134.4,406.9C-1134.5,406.8-1134.4,406.8-1134.4,406.9z"/>
	<path class="st1" d="M-1134.3,407.1l-16.7,10.3c0,0-0.1,0-0.1,0l0,0c0,0,0-0.1,0-0.1l16.7-10.3
		C-1134.4,407-1134.3,407-1134.3,407.1L-1134.3,407.1C-1134.3,407-1134.3,407.1-1134.3,407.1z"/>
	<path class="st1" d="M-1144.5,426c-1.3,3.2-1.3,8.7,6.3,9.4"/>
</g>
<g id="image_2_" class="st0">
	
		<image style="display:inline;overflow:visible;enable-background:new    ;" width="173" height="203" xlink:href="8778D287E8E3AA1A.png"  transform="matrix(0.3965 0 0 0.3952 -1148.7521 373.2666)">
	</image>
</g>
<g id="mobile-access" class="st0">
	<line class="st1" x1="-1138" y1="393" x2="-1138" y2="440"/>
	<line class="st1" x1="-1105" y1="393" x2="-1105" y2="440"/>
	<line class="st1" x1="-1138" y1="432" x2="-1105" y2="432"/>
	<line class="st1" x1="-1138" y1="399" x2="-1105" y2="399"/>
	<line class="st1" x1="-1136" y1="391" x2="-1108" y2="391"/>
	<line class="st1" x1="-1128" y1="395" x2="-1116" y2="395"/>
	<path class="st2" d="M-1118.5,438.4h-6.1c-0.7,0-1.2-0.5-1.2-1.2l0,0c0-0.7,0.5-1.2,1.2-1.2h6.1c0.7,0,1.2,0.5,1.2,1.2l0,0
		C-1117.2,437.8-1117.8,438.4-1118.5,438.4z"/>
	<line class="st1" x1="-1136" y1="442" x2="-1108" y2="442"/>
	<path class="st1" d="M-1138,393.6c0-1.4,1.1-2.6,2.5-2.6"/>
	<path class="st1" d="M-1105,393.3c0-1.3-1.5-2.3-3.3-2.3"/>
	<path class="st1" d="M-1138,439.5c0,1.4,1,2.5,2.3,2.5"/>
	<path class="st1" d="M-1105,440c0,1.1-1.3,2-3,2"/>
	<path class="st2" d="M-1122.1,426.6L-1122.1,426.6c-1.3,0-2.4-1.1-2.4-2.4l0,0c0-1.3,1.1-2.4,2.4-2.4l0,0c1.3,0,2.4,1.1,2.4,2.4
		l0,0C-1119.8,425.6-1120.8,426.6-1122.1,426.6z"/>
	<path class="st1" d="M-1127.6,417.3c5.3-3.3,9.4-1.2,10.6-0.1"/>
	<path class="st1" d="M-1130.7,412.8c8.4-5.2,14.9-1.9,16.9-0.2"/>
	<path class="st1" d="M-1133.8,408.8c11.1-7.9,20-3,22.6-0.6"/>
</g>
<g id="image_3_" class="st0">
	
		<image style="display:inline;overflow:visible;enable-background:new    ;" width="77" height="75" xlink:href="8778D287E8E3AA1B.png"  transform="matrix(1.0048 0 0 0.9909 -1158.3699 381.8421)">
	</image>
</g>
<g id="business-rules" class="st0">
	<circle class="st1" cx="-1109.1" cy="398.2" r="8.9"/>
	<line class="st1" x1="-1114.3" y1="397.1" x2="-1110" y2="402.3"/>
	<line class="st1" x1="-1111" y1="402.9" x2="-1097.8" y2="388.5"/>
	<line class="st1" x1="-1117.3" y1="393.3" x2="-1123.2" y2="389.9"/>
	<line class="st1" x1="-1097.5" y1="405.7" x2="-1101.1" y2="403"/>
	<line class="st1" x1="-1146.5" y1="404.8" x2="-1122.4" y2="390.4"/>
	<line class="st1" x1="-1146" y1="404" x2="-1146" y2="430"/>
	<line class="st1" x1="-1098" y1="405" x2="-1098" y2="431"/>
	<line class="st1" x1="-1146.7" y1="429.7" x2="-1122" y2="446"/>
	<line class="st1" x1="-1122.6" y1="446.2" x2="-1097.5" y2="430.2"/>
</g>
<g id="image_4_" class="st0">
	
		<image style="display:inline;overflow:visible;enable-background:new    ;" width="107" height="111" xlink:href="8778D287E8E3AA14.png"  transform="matrix(0.6196 0 0 0.6318 -1152.1727 381.75)">
	</image>
</g>
<g id="permanent-history" class="st0">
	<line class="st1" x1="-1145" y1="396" x2="-1145" y2="420"/>
	<line class="st1" x1="-1098" y1="397" x2="-1098" y2="420"/>
	<line class="st1" x1="-1104" y1="400" x2="-1104" y2="420"/>
	<line class="st1" x1="-1139" y1="405" x2="-1139" y2="423"/>
	<line class="st1" x1="-1128" y1="415" x2="-1114" y2="415"/>
	<circle class="st1" cx="-1121.2" cy="420.3" r="2.2"/>
	<line class="st1" x1="-1121" y1="422" x2="-1121" y2="425"/>
	<line class="st1" x1="-1121" y1="447.3" x2="-1132.3" y2="439.7"/>
	<line class="st1" x1="-1121.7" y1="446.7" x2="-1110.4" y2="439.9"/>
	<line class="st1" x1="-1121.1" y1="440.2" x2="-1129.3" y2="434.7"/>
	<line class="st1" x1="-1122.2" y1="440.2" x2="-1113.5" y2="434.9"/>
	<line class="st1" x1="-1121" y1="386.7" x2="-1129.7" y2="392.6"/>
	<line class="st1" x1="-1121.7" y1="387.3" x2="-1113.5" y2="391.4"/>
	<line class="st1" x1="-1121.1" y1="393.8" x2="-1126.6" y2="396.5"/>
	<line class="st1" x1="-1122.2" y1="393.8" x2="-1117.6" y2="396.4"/>
	<line class="st1" x1="-1121.1" y1="430.1" x2="-1128.8" y2="424.9"/>
	<line class="st1" x1="-1122" y1="430.1" x2="-1113.9" y2="425"/>
	<line class="st1" x1="-1129" y1="416" x2="-1129" y2="426"/>
	<line class="st1" x1="-1114" y1="414" x2="-1114" y2="426"/>
	<line class="st1" x1="-1114" y1="414" x2="-1114" y2="407"/>
	<path class="st1" d="M-1145,420c0,11,12.4,18.7,13,19.9"/>
	<path class="st1" d="M-1139,422.5c1.4,6.2,9.8,11.9,10.1,12.4"/>
	<path class="st1" d="M-1098,420c0,11.1-12.8,20.1-12.8,20.1"/>
	<path class="st1" d="M-1104,419.6c0,8.6-9.9,15.5-9.9,15.5"/>
	<path class="st1" d="M-1129,416c0-0.6,0.7-1,1.6-1"/>
	<path class="st1" d="M-1114,407.3c-2.2-12.1-14.9-7.2-13.4,2.2"/>
	<path class="st1" d="M-1134.1,397.5c1.5,0.4,6.4-0.3,8.2-1.4"/>
	<path class="st1" d="M-1137.1,393.5c1.5,0.4,6.4-0.3,8.2-1.4"/>
	<path class="st1" d="M-1105.9,392.5c-1.5,0.4-6.4-0.3-8.2-1.4"/>
	<path class="st1" d="M-1145,396.3c0.1-2.1,4.1-2.8,9-2.6"/>
	<path class="st1" d="M-1118,396.2c1.4,1,6.6,3.8,14.7,3.6"/>
	<path class="st1" d="M-1097.9,397.7"/>
	<path class="st1" d="M-1098,397.2c0-2.5-3.7-4.6-8.3-4.6"/>
</g>
<g id="image_5_" class="st0">
	
		<image style="display:inline;overflow:visible;enable-background:new    ;" width="60" height="68" xlink:href="8778D287E8E3AA09.png"  transform="matrix(1.3337 0 0 1.3364 -1153.5951 367.375)">
	</image>
</g>
<g id="payment_notifications_1_" class="st0">
	<line class="st1" x1="-1120" y1="387" x2="-1120" y2="413"/>
	<line class="st1" x1="-1126" y1="387" x2="-1126" y2="413"/>
	<line class="st1" x1="-1126" y1="417" x2="-1126" y2="435"/>
	<line class="st1" x1="-1120" y1="418" x2="-1120" y2="435"/>
	<line class="st1" x1="-1126" y1="441" x2="-1126" y2="446"/>
	<line class="st1" x1="-1120" y1="441" x2="-1120" y2="446"/>
	<path class="st1" d="M-1107.8,406.2c1.9-9.8-25.9-23-30.3-0.6"/>
	<path class="st1" d="M-1138.1,404.8c-0.6,12,23.8,13.9,27.7,17.2"/>
	<path class="st1" d="M-1110.8,421.8c3.1,7.2,2.7,19.3-16.8,17.6"/>
	<path class="st1" d="M-1138.1,427.1c-0.8,5.3,5.3,12.4,11.9,12.4"/>
</g>
<g id="image_6_" class="st0">
	
		<image style="display:inline;overflow:visible;enable-background:new    ;" width="80" height="86" xlink:href="8778D287E8E3AA0A.png"  transform="matrix(0.754 0 0 0.7635 -1146.8198 387.057)">
	</image>
</g>
<g id="image_7_" class="st0">
	
		<image style="display:inline;overflow:visible;enable-background:new    ;" width="112" height="102" xlink:href="8778D287E8E3AA0B.png"  transform="matrix(0.7707 0 0 0.777 -1161.1683 381.5)">
	</image>
</g>
<g id="flexible-distribution" class="st0">
	<line class="st1" x1="-1141" y1="391" x2="-1141" y2="420"/>
	<line class="st1" x1="-1141" y1="428" x2="-1141" y2="444"/>
	<line class="st1" x1="-1122" y1="391" x2="-1122" y2="403"/>
	<line class="st1" x1="-1122" y1="412" x2="-1122" y2="444"/>
	<line class="st1" x1="-1103" y1="391" x2="-1103" y2="428"/>
	<line class="st1" x1="-1103" y1="437" x2="-1103" y2="444"/>
	<path class="st1" d="M-1136.7,427.9h-8.8c-2.3,0-4.1-1.9-4.1-4.1l0,0c0-2.3,1.9-4.1,4.1-4.1h8.8c2.3,0,4.1,1.9,4.1,4.1l0,0
		C-1132.6,426.1-1134.5,427.9-1136.7,427.9z"/>
	<path class="st1" d="M-1117.6,411.4h-8.8c-2.3,0-4.1-1.9-4.1-4.1l0,0c0-2.3,1.9-4.1,4.1-4.1h8.8c2.3,0,4.1,1.9,4.1,4.1l0,0
		C-1113.5,409.5-1115.3,411.4-1117.6,411.4z"/>
	<path class="st1" d="M-1098.6,436.7h-8.8c-2.3,0-4.1-1.9-4.1-4.1l0,0c0-2.3,1.9-4.1,4.1-4.1h8.8c2.3,0,4.1,1.9,4.1,4.1l0,0
		C-1094.5,434.9-1096.3,436.7-1098.6,436.7z"/>
</g>
<g id="image_8_" class="st0">
	
		<image style="display:inline;overflow:visible;enable-background:new    ;" width="314" height="280" xlink:href="8778D287E8E3AA0C.png"  transform="matrix(0.2655 0 0 0.2624 -1163.7698 381.6667)">
	</image>
</g>
<g id="ocr-templates" class="st0">
	<line class="st1" x1="-1142" y1="394" x2="-1108" y2="394"/>
	<line class="st1" x1="-1141" y1="441" x2="-1100" y2="441"/>
	<line class="st1" x1="-1145" y1="397" x2="-1145" y2="438"/>
	<line class="st1" x1="-1097" y1="405" x2="-1097" y2="439"/>
	<line class="st1" x1="-1098" y1="406" x2="-1108" y2="406"/>
	<line class="st1" x1="-1110" y1="393" x2="-1110" y2="404"/>
	<line class="st1" x1="-1109.3" y1="393.6" x2="-1096.6" y2="406"/>
	<path class="st1" d="M-1145,397.3c0-1.8,1.3-3.3,3-3.3"/>
	<path class="st1" d="M-1145,437.6c0,1.9,2,3.4,4.6,3.4"/>
	<path class="st1" d="M-1097,438.6c0,1.3-1.6,2.4-3.5,2.4"/>
	<path class="st1" d="M-1110,403.5c0,1.4,1.3,2.5,2.9,2.5"/>
</g>
<polyline class="st3" points="-1104.5,445.8 -1113.5,445.8 -1113.7,438.2 -1100.5,438.2 -1108.8,423.7 -1102.5,423.7 -1112.8,408.3 
	-1107.2,408.3 -1120.3,389.5 -1133.8,408.3 -1128.2,408.3 -1138.5,423.7 -1132.2,423.7 -1140.5,438.2 -1127.3,438.2 -1127.5,445.8 
	-1136,445.8 "/>
</svg>
